<svg width="128" height="27" viewBox="0 0 128 27" fill="none" xmlns="http://www.w3.org/2000/svg">
<path d="M10.1251 24.75H16.8751C22.5001 24.75 24.7501 22.5 24.7501 16.875V10.125C24.7501 4.49997 22.5001 2.24997 16.8751 2.24997H10.1251C4.50006 2.24997 2.25006 4.49997 2.25006 10.125V16.875C2.25006 22.5 4.50006 24.75 10.1251 24.75Z" fill="#AA3FFF" stroke="#292D32" stroke-width="1.5" stroke-linecap="round" stroke-linejoin="round"/>
<path d="M10.125 2.24997L15.6938 24.75" stroke="#292D32" stroke-width="1.5" stroke-linecap="round" stroke-linejoin="round"/>
<path d="M28.52 15C28.4027 15 28.3067 14.9627 28.232 14.888C28.1573 14.8133 28.12 14.7173 28.12 14.6V4.2C28.12 4.08267 28.1573 3.98667 28.232 3.912C28.3067 3.83733 28.4027 3.8 28.52 3.8H30.536C30.6533 3.8 30.7493 3.83733 30.824 3.912C30.8987 3.98667 30.936 4.08267 30.936 4.2V7.752L33.896 4.104C33.9387 4.04 34.008 3.976 34.104 3.912C34.2107 3.83733 34.3493 3.8 34.52 3.8H36.824C36.92 3.8 37 3.83733 37.064 3.912C37.128 3.976 37.16 4.05067 37.16 4.136C37.16 4.21067 37.1387 4.27467 37.096 4.328L33.272 9.16L37.4 14.472C37.4427 14.5147 37.464 14.5787 37.464 14.664C37.464 14.7493 37.4267 14.8293 37.352 14.904C37.288 14.968 37.2133 15 37.128 15H34.744C34.552 15 34.4027 14.9573 34.296 14.872C34.2 14.7867 34.136 14.7227 34.104 14.68L30.936 10.728V14.6C30.936 14.7173 30.8987 14.8133 30.824 14.888C30.7493 14.9627 30.6533 15 30.536 15H28.52ZM38.0738 15C37.9884 15 37.9084 14.968 37.8338 14.904C37.7698 14.8293 37.7378 14.7493 37.7378 14.664C37.7378 14.6107 37.7431 14.5627 37.7538 14.52L41.5138 4.248C41.5458 4.13067 41.6098 4.02933 41.7057 3.944C41.8124 3.848 41.9564 3.8 42.1378 3.8H44.5058C44.6871 3.8 44.8258 3.848 44.9218 3.944C45.0284 4.02933 45.0978 4.13067 45.1298 4.248L48.8738 14.52C48.8951 14.5627 48.9058 14.6107 48.9058 14.664C48.9058 14.7493 48.8684 14.8293 48.7938 14.904C48.7298 14.968 48.6498 15 48.5538 15H46.5858C46.4258 15 46.3031 14.9627 46.2178 14.888C46.1431 14.8027 46.0951 14.728 46.0738 14.664L45.4498 13.032H41.1778L40.5698 14.664C40.5484 14.728 40.5004 14.8027 40.4258 14.888C40.3511 14.9627 40.2231 15 40.0418 15H38.0738ZM41.8338 10.728H44.8098L43.3058 6.504L41.8338 10.728ZM54.6049 15.16C53.6449 15.16 52.8022 15.0053 52.0769 14.696C51.3622 14.376 50.8075 13.8907 50.4129 13.24C50.0182 12.5787 49.8209 11.7413 49.8209 10.728V4.2C49.8209 4.08267 49.8582 3.98667 49.9329 3.912C50.0075 3.83733 50.1035 3.8 50.2209 3.8H52.2849C52.4022 3.8 52.4982 3.83733 52.5729 3.912C52.6475 3.98667 52.6849 4.08267 52.6849 4.2V10.712C52.6849 11.4053 52.8502 11.928 53.1809 12.28C53.5222 12.6213 53.9969 12.792 54.6049 12.792C55.2022 12.792 55.6662 12.6213 55.9969 12.28C56.3382 11.928 56.5089 11.4053 56.5089 10.712V4.2C56.5089 4.08267 56.5462 3.98667 56.6209 3.912C56.7062 3.83733 56.8022 3.8 56.9089 3.8H58.9889C59.0955 3.8 59.1862 3.83733 59.2609 3.912C59.3462 3.98667 59.3889 4.08267 59.3889 4.2V10.728C59.3889 11.7413 59.1915 12.5787 58.7969 13.24C58.4022 13.8907 57.8475 14.376 57.1329 14.696C56.4182 15.0053 55.5755 15.16 54.6049 15.16ZM61.9106 15C61.7933 15 61.6973 14.9627 61.6226 14.888C61.548 14.8133 61.5106 14.7173 61.5106 14.6V4.2C61.5106 4.08267 61.548 3.98667 61.6226 3.912C61.6973 3.83733 61.7933 3.8 61.9106 3.8H66.2626C67.6386 3.8 68.7213 4.12 69.5106 4.76C70.3106 5.38933 70.7106 6.28533 70.7106 7.448C70.7106 8.20533 70.524 8.84533 70.1506 9.368C69.788 9.89067 69.308 10.2853 68.7106 10.552L70.9186 14.488C70.9506 14.552 70.9666 14.6107 70.9666 14.664C70.9666 14.7493 70.9293 14.8293 70.8546 14.904C70.7906 14.968 70.7106 15 70.6146 15H68.5026C68.3 15 68.1506 14.952 68.0546 14.856C67.9586 14.7493 67.8893 14.6533 67.8466 14.568L66.0226 11.048H64.3746V14.6C64.3746 14.7173 64.3373 14.8133 64.2626 14.888C64.188 14.9627 64.092 15 63.9746 15H61.9106ZM64.3746 8.792H66.2306C66.732 8.792 67.1053 8.66933 67.3506 8.424C67.6066 8.17867 67.7346 7.84267 67.7346 7.416C67.7346 7 67.612 6.664 67.3666 6.408C67.132 6.152 66.7533 6.024 66.2306 6.024H64.3746V8.792ZM77.1183 15.16C76.1049 15.16 75.2356 14.9947 74.5103 14.664C73.7956 14.3333 73.2356 13.848 72.8303 13.208C72.4356 12.568 72.2169 11.7733 72.1743 10.824C72.1636 10.3867 72.1583 9.91733 72.1583 9.416C72.1583 8.91467 72.1636 8.43467 72.1743 7.976C72.2169 7.048 72.4409 6.264 72.8463 5.624C73.2516 4.97333 73.8169 4.48267 74.5423 4.152C75.2676 3.81067 76.1263 3.64 77.1183 3.64C77.8223 3.64 78.4729 3.73067 79.0703 3.912C79.6676 4.08267 80.1903 4.33867 80.6383 4.68C81.0863 5.01067 81.4329 5.416 81.6783 5.896C81.9343 6.36533 82.0676 6.89867 82.0783 7.496C82.0889 7.592 82.0569 7.672 81.9823 7.736C81.9183 7.8 81.8383 7.832 81.7423 7.832H79.5823C79.4436 7.832 79.3369 7.80533 79.2623 7.752C79.1876 7.688 79.1236 7.576 79.0703 7.416C78.9209 6.85067 78.6756 6.46667 78.3343 6.264C78.0036 6.05067 77.5929 5.944 77.1023 5.944C76.5156 5.944 76.0516 6.10933 75.7103 6.44C75.3689 6.76 75.1823 7.29867 75.1503 8.056C75.1183 8.93067 75.1183 9.82667 75.1503 10.744C75.1823 11.5013 75.3689 12.0453 75.7103 12.376C76.0516 12.696 76.5156 12.856 77.1023 12.856C77.5929 12.856 78.0089 12.7493 78.3503 12.536C78.6916 12.3227 78.9316 11.9387 79.0703 11.384C79.1129 11.224 79.1716 11.1173 79.2463 11.064C79.3316 11 79.4436 10.968 79.5823 10.968H81.7423C81.8383 10.968 81.9183 11 81.9823 11.064C82.0569 11.128 82.0889 11.208 82.0783 11.304C82.0676 11.9013 81.9343 12.44 81.6783 12.92C81.4329 13.3893 81.0863 13.7947 80.6383 14.136C80.1903 14.4667 79.6676 14.7227 79.0703 14.904C78.4729 15.0747 77.8223 15.16 77.1183 15.16ZM84.1606 15C84.0433 15 83.9473 14.9627 83.8726 14.888C83.798 14.8133 83.7606 14.7173 83.7606 14.6V4.2C83.7606 4.08267 83.798 3.98667 83.8726 3.912C83.9473 3.83733 84.0433 3.8 84.1606 3.8H91.6326C91.75 3.8 91.846 3.83733 91.9206 3.912C91.9953 3.98667 92.0326 4.08267 92.0326 4.2V5.704C92.0326 5.82133 91.9953 5.91733 91.9206 5.992C91.846 6.06667 91.75 6.104 91.6326 6.104H86.5286V8.264H91.2806C91.398 8.264 91.494 8.30667 91.5686 8.392C91.6433 8.46667 91.6806 8.56267 91.6806 8.68V10.072C91.6806 10.1787 91.6433 10.2747 91.5686 10.36C91.494 10.4347 91.398 10.472 91.2806 10.472H86.5286V12.696H91.7606C91.878 12.696 91.974 12.7333 92.0486 12.808C92.1233 12.8827 92.1606 12.9787 92.1606 13.096V14.6C92.1606 14.7173 92.1233 14.8133 92.0486 14.888C91.974 14.9627 91.878 15 91.7606 15H84.1606ZM97.1169 15C96.9355 15 96.7915 14.952 96.6849 14.856C96.5782 14.76 96.5035 14.648 96.4609 14.52L93.1969 4.28C93.1755 4.22667 93.1649 4.17867 93.1649 4.136C93.1649 4.05067 93.1969 3.976 93.2609 3.912C93.3355 3.83733 93.4209 3.8 93.5169 3.8H95.5009C95.6715 3.8 95.8049 3.848 95.9009 3.944C95.9969 4.04 96.0555 4.13067 96.0769 4.216L98.3329 11.608L100.605 4.216C100.637 4.13067 100.696 4.04 100.781 3.944C100.877 3.848 101.01 3.8 101.181 3.8H103.165C103.261 3.8 103.341 3.83733 103.405 3.912C103.48 3.976 103.517 4.05067 103.517 4.136C103.517 4.17867 103.506 4.22667 103.485 4.28L100.221 14.52C100.178 14.648 100.104 14.76 99.9969 14.856C99.9009 14.952 99.7569 15 99.5649 15H97.1169ZM104.217 15C104.1 15 104.004 14.9627 103.929 14.888C103.854 14.8133 103.817 14.7173 103.817 14.6V12.568C103.817 12.4613 103.854 12.3707 103.929 12.296C104.004 12.2107 104.1 12.168 104.217 12.168H106.233C106.35 12.168 106.446 12.2107 106.521 12.296C106.606 12.3707 106.649 12.4613 106.649 12.568V14.6C106.649 14.7173 106.606 14.8133 106.521 14.888C106.446 14.9627 106.35 15 106.233 15H104.217ZM110.5 15C110.382 15 110.286 14.9627 110.212 14.888C110.137 14.8133 110.1 14.7173 110.1 14.6V6.312H107.252C107.134 6.312 107.038 6.27467 106.964 6.2C106.889 6.11467 106.852 6.01867 106.852 5.912V4.2C106.852 4.08267 106.889 3.98667 106.964 3.912C107.038 3.83733 107.134 3.8 107.252 3.8H115.86C115.977 3.8 116.073 3.83733 116.148 3.912C116.222 3.98667 116.26 4.08267 116.26 4.2V5.912C116.26 6.01867 116.222 6.11467 116.148 6.2C116.073 6.27467 115.977 6.312 115.86 6.312H113.012V14.6C113.012 14.7173 112.974 14.8133 112.9 14.888C112.825 14.9627 112.729 15 112.612 15H110.5ZM118.114 15C117.996 15 117.9 14.9627 117.826 14.888C117.751 14.8133 117.714 14.7173 117.714 14.6V4.2C117.714 4.08267 117.751 3.98667 117.826 3.912C117.9 3.83733 117.996 3.8 118.114 3.8H120.13C120.247 3.8 120.343 3.83733 120.418 3.912C120.492 3.98667 120.53 4.08267 120.53 4.2V7.752L123.49 4.104C123.532 4.04 123.602 3.976 123.698 3.912C123.804 3.83733 123.943 3.8 124.114 3.8H126.418C126.514 3.8 126.594 3.83733 126.658 3.912C126.722 3.976 126.754 4.05067 126.754 4.136C126.754 4.21067 126.732 4.27467 126.69 4.328L122.866 9.16L126.994 14.472C127.036 14.5147 127.058 14.5787 127.058 14.664C127.058 14.7493 127.02 14.8293 126.946 14.904C126.882 14.968 126.807 15 126.722 15H124.338C124.146 15 123.996 14.9573 123.89 14.872C123.794 14.7867 123.73 14.7227 123.698 14.68L120.53 10.728V14.6C120.53 14.7173 120.492 14.8133 120.418 14.888C120.343 14.9627 120.247 15 120.13 15H118.114Z" fill="black"/>
<path d="M32.45 24C32.3833 24 32.33 23.98 32.29 23.94C32.25 23.9 32.23 23.8467 32.23 23.78V17.6H29.48V19.51C29.48 20.31 29.4333 20.99 29.34 21.55C29.2533 22.11 29.1233 22.5667 28.95 22.92C28.7767 23.2667 28.5633 23.5267 28.31 23.7C28.0567 23.8667 27.7633 23.9633 27.43 23.99C27.3633 23.9967 27.3067 23.9767 27.26 23.93C27.22 23.8833 27.2 23.8267 27.2 23.76V23.58C27.2 23.4467 27.2667 23.3733 27.4 23.36C27.6133 23.3267 27.8067 23.24 27.98 23.1C28.16 22.9533 28.3133 22.7333 28.44 22.44C28.5733 22.14 28.6733 21.7433 28.74 21.25C28.8133 20.7567 28.85 20.15 28.85 19.43V17.22C28.85 17.1533 28.87 17.1 28.91 17.06C28.95 17.02 29.0033 17 29.07 17H32.63C32.7033 17 32.76 17.02 32.8 17.06C32.84 17.1 32.86 17.1567 32.86 17.23V23.78C32.86 23.8467 32.84 23.9 32.8 23.94C32.76 23.98 32.7033 24 32.63 24H32.45ZM34.8069 24C34.7535 24 34.7069 23.98 34.6669 23.94C34.6269 23.9 34.6069 23.8533 34.6069 23.8V19.02C34.6069 18.9533 34.6269 18.9 34.6669 18.86C34.7069 18.82 34.7602 18.8 34.8269 18.8H34.9969C35.0635 18.8 35.1169 18.82 35.1569 18.86C35.1969 18.9 35.2169 18.9533 35.2169 19.02V23.51L35.0369 23.22L38.2969 18.95C38.3302 18.91 38.3635 18.8767 38.3969 18.85C38.4369 18.8167 38.4902 18.8 38.5569 18.8H38.7469C38.8002 18.8 38.8469 18.82 38.8869 18.86C38.9269 18.8933 38.9469 18.9367 38.9469 18.99V23.78C38.9469 23.8467 38.9269 23.9 38.8869 23.94C38.8469 23.98 38.7935 24 38.7269 24H38.5569C38.4902 24 38.4369 23.98 38.3969 23.94C38.3569 23.9 38.3369 23.8467 38.3369 23.78V19.59L38.5469 19.54L35.2569 23.85C35.2302 23.8833 35.1969 23.9167 35.1569 23.95C35.1169 23.9833 35.0635 24 34.9969 24H34.8069ZM43.8239 24C43.7572 24 43.7039 23.98 43.6639 23.94C43.6239 23.9 43.6039 23.8467 43.6039 23.78V21.74C43.4172 21.9267 43.1906 22.0633 42.9239 22.15C42.6572 22.23 42.3506 22.27 42.0039 22.27C41.4372 22.27 40.9939 22.1533 40.6739 21.92C40.3606 21.6867 40.2039 21.3067 40.2039 20.78V19.02C40.2039 18.9533 40.2239 18.9 40.2639 18.86C40.3039 18.82 40.3572 18.8 40.4239 18.8H40.5939C40.6606 18.8 40.7139 18.82 40.7539 18.86C40.7939 18.9 40.8139 18.9533 40.8139 19.02V20.73C40.8139 21.0567 40.9139 21.3 41.1139 21.46C41.3206 21.6133 41.6306 21.69 42.0439 21.69C42.5172 21.69 42.8939 21.6333 43.1739 21.52C43.4606 21.4067 43.6039 21.1967 43.6039 20.89V19.02C43.6039 18.9533 43.6239 18.9 43.6639 18.86C43.7039 18.82 43.7572 18.8 43.8239 18.8H43.9939C44.0606 18.8 44.1139 18.82 44.1539 18.86C44.1939 18.9 44.2139 18.9533 44.2139 19.02V23.78C44.2139 23.8467 44.1939 23.9 44.1539 23.94C44.1139 23.98 44.0606 24 43.9939 24H43.8239ZM46.0573 24C45.9907 24 45.9373 23.98 45.8973 23.94C45.8573 23.9 45.8373 23.8467 45.8373 23.78V19.02C45.8373 18.9533 45.8573 18.9 45.8973 18.86C45.9373 18.82 45.9907 18.8 46.0573 18.8H46.2273C46.294 18.8 46.3473 18.82 46.3873 18.86C46.4273 18.9 46.4473 18.9533 46.4473 19.02V21.05H49.5673V19.02C49.5673 18.9533 49.5873 18.9 49.6273 18.86C49.6673 18.82 49.7207 18.8 49.7873 18.8H49.9573C50.024 18.8 50.0773 18.82 50.1173 18.86C50.1573 18.9 50.1773 18.9533 50.1773 19.02V23.78C50.1773 23.8467 50.1573 23.9 50.1173 23.94C50.0773 23.98 50.024 24 49.9573 24H49.7873C49.7207 24 49.6673 23.98 49.6273 23.94C49.5873 23.9 49.5673 23.8467 49.5673 23.78V21.63H46.4473V23.78C46.4473 23.8467 46.4273 23.9 46.3873 23.94C46.3473 23.98 46.294 24 46.2273 24H46.0573ZM52.0144 24C51.9477 24 51.8944 23.98 51.8544 23.94C51.8144 23.9 51.7944 23.8467 51.7944 23.78V19.02C51.7944 18.9533 51.8144 18.9 51.8544 18.86C51.8944 18.82 51.9477 18.8 52.0144 18.8H52.1844C52.251 18.8 52.3044 18.82 52.3444 18.86C52.3844 18.9 52.4044 18.9533 52.4044 19.02V20.54H53.5044C54.1844 20.54 54.6677 20.7 54.9544 21.02C55.2477 21.34 55.3944 21.77 55.3944 22.31C55.3944 22.8967 55.2277 23.3267 54.8944 23.6C54.5677 23.8667 54.0544 24 53.3544 24H52.0144ZM52.4044 23.42H53.4444C53.911 23.42 54.251 23.34 54.4644 23.18C54.6777 23.0133 54.7844 22.7233 54.7844 22.31C54.7844 21.91 54.681 21.6133 54.4744 21.42C54.2677 21.22 53.9244 21.12 53.4444 21.12H52.4044V23.42ZM56.3744 24C56.3077 24 56.2544 23.98 56.2144 23.94C56.1744 23.9 56.1544 23.8467 56.1544 23.78V19.02C56.1544 18.9533 56.1744 18.9 56.2144 18.86C56.2544 18.82 56.3077 18.8 56.3744 18.8H56.5444C56.611 18.8 56.6644 18.82 56.7044 18.86C56.7444 18.9 56.7644 18.9533 56.7644 19.02V23.78C56.7644 23.8467 56.7444 23.9 56.7044 23.94C56.6644 23.98 56.611 24 56.5444 24H56.3744ZM58.5862 24C58.5328 24 58.4862 23.98 58.4462 23.94C58.4062 23.9 58.3862 23.8533 58.3862 23.8V19.02C58.3862 18.9533 58.4062 18.9 58.4462 18.86C58.4862 18.82 58.5395 18.8 58.6062 18.8H58.7762C58.8428 18.8 58.8962 18.82 58.9362 18.86C58.9762 18.9 58.9962 18.9533 58.9962 19.02V23.51L58.8162 23.22L62.0762 18.95C62.1095 18.91 62.1428 18.8767 62.1762 18.85C62.2162 18.8167 62.2695 18.8 62.3362 18.8H62.5262C62.5795 18.8 62.6262 18.82 62.6662 18.86C62.7062 18.8933 62.7262 18.9367 62.7262 18.99V23.78C62.7262 23.8467 62.7062 23.9 62.6662 23.94C62.6262 23.98 62.5728 24 62.5062 24H62.3362C62.2695 24 62.2162 23.98 62.1762 23.94C62.1362 23.9 62.1162 23.8467 62.1162 23.78V19.59L62.3262 19.54L59.0362 23.85C59.0095 23.8833 58.9762 23.9167 58.9362 23.95C58.8962 23.9833 58.8428 24 58.7762 24H58.5862ZM60.5562 18.1C60.1828 18.1 59.8928 18.0433 59.6862 17.93C59.4862 17.8167 59.3462 17.67 59.2662 17.49C59.1928 17.31 59.1562 17.1267 59.1562 16.94C59.1562 16.8867 59.1728 16.8433 59.2062 16.81C59.2395 16.77 59.2862 16.75 59.3462 16.75H59.4962C59.5562 16.75 59.6028 16.77 59.6362 16.81C59.6695 16.8433 59.6862 16.8867 59.6862 16.94C59.6862 17.1 59.7428 17.25 59.8562 17.39C59.9762 17.53 60.2095 17.6 60.5562 17.6C60.9095 17.6 61.1428 17.53 61.2562 17.39C61.3695 17.25 61.4262 17.1 61.4262 16.94C61.4262 16.8867 61.4428 16.8433 61.4762 16.81C61.5095 16.77 61.5562 16.75 61.6162 16.75H61.7662C61.8262 16.75 61.8728 16.77 61.9062 16.81C61.9395 16.8433 61.9562 16.8867 61.9562 16.94C61.9562 17.1267 61.9162 17.31 61.8362 17.49C61.7628 17.67 61.6228 17.8167 61.4162 17.93C61.2162 18.0433 60.9295 18.1 60.5562 18.1ZM68.8913 24.1C68.4247 24.1 68.028 24.01 67.7013 23.83C67.3747 23.6433 67.1247 23.3767 66.9513 23.03C66.7847 22.6833 66.6947 22.2733 66.6813 21.8C66.6747 21.7 66.6713 21.5667 66.6713 21.4C66.6713 21.2333 66.6747 21.1 66.6813 21C66.6947 20.52 66.7847 20.11 66.9513 19.77C67.1247 19.4233 67.3747 19.16 67.7013 18.98C68.028 18.7933 68.4247 18.7 68.8913 18.7C69.2447 18.7 69.548 18.75 69.8013 18.85C70.0613 18.9433 70.2747 19.07 70.4413 19.23C70.608 19.3833 70.7347 19.5533 70.8213 19.74C70.908 19.9267 70.9547 20.11 70.9613 20.29C70.968 20.3567 70.948 20.41 70.9013 20.45C70.8547 20.49 70.8013 20.51 70.7413 20.51H70.6013C70.5347 20.51 70.4847 20.4967 70.4513 20.47C70.4247 20.4367 70.3947 20.38 70.3613 20.3C70.2213 19.92 70.028 19.6567 69.7813 19.51C69.5413 19.3567 69.2447 19.28 68.8913 19.28C68.438 19.28 68.0613 19.42 67.7613 19.7C67.468 19.9733 67.3113 20.4233 67.2913 21.05C67.278 21.2833 67.278 21.5167 67.2913 21.75C67.3113 22.3767 67.468 22.83 67.7613 23.11C68.0613 23.3833 68.438 23.52 68.8913 23.52C69.2447 23.52 69.5413 23.4467 69.7813 23.3C70.028 23.1467 70.2213 22.88 70.3613 22.5C70.3947 22.42 70.4247 22.3667 70.4513 22.34C70.4847 22.3067 70.5347 22.29 70.6013 22.29H70.7413C70.8013 22.29 70.8547 22.31 70.9013 22.35C70.948 22.39 70.968 22.4433 70.9613 22.51C70.9547 22.6567 70.9247 22.8033 70.8713 22.95C70.818 23.0967 70.7347 23.24 70.6213 23.38C70.5147 23.52 70.3813 23.6433 70.2213 23.75C70.0613 23.8567 69.868 23.94 69.6413 24C69.4213 24.0667 69.1713 24.1 68.8913 24.1ZM73.6827 24.1C73.3627 24.1 73.066 24.0333 72.7927 23.9C72.526 23.7667 72.3093 23.59 72.1427 23.37C71.976 23.1433 71.8927 22.89 71.8927 22.61C71.8927 22.1567 72.076 21.7933 72.4427 21.52C72.8093 21.2467 73.286 21.07 73.8727 20.99L75.4527 20.77V20.42C75.4527 20.0667 75.3427 19.79 75.1227 19.59C74.9093 19.3833 74.566 19.28 74.0927 19.28C73.746 19.28 73.466 19.35 73.2527 19.49C73.0393 19.6233 72.8927 19.8 72.8127 20.02C72.7793 20.12 72.716 20.17 72.6227 20.17H72.4627C72.3827 20.17 72.326 20.15 72.2927 20.11C72.2593 20.0633 72.2427 20.01 72.2427 19.95C72.2427 19.8567 72.276 19.74 72.3427 19.6C72.416 19.46 72.526 19.3233 72.6727 19.19C72.8193 19.05 73.0093 18.9333 73.2427 18.84C73.476 18.7467 73.7593 18.7 74.0927 18.7C74.486 18.7 74.8093 18.7533 75.0627 18.86C75.3227 18.9667 75.5227 19.1067 75.6627 19.28C75.8093 19.4467 75.9127 19.6333 75.9727 19.84C76.0327 20.0467 76.0627 20.25 76.0627 20.45V23.78C76.0627 23.8467 76.0427 23.9 76.0027 23.94C75.9627 23.98 75.9093 24 75.8427 24H75.6727C75.606 24 75.5527 23.98 75.5127 23.94C75.4727 23.9 75.4527 23.8467 75.4527 23.78V23.31C75.3727 23.43 75.2593 23.55 75.1127 23.67C74.966 23.79 74.776 23.8933 74.5427 23.98C74.316 24.06 74.0293 24.1 73.6827 24.1ZM73.7827 23.52C74.0893 23.52 74.3693 23.4533 74.6227 23.32C74.876 23.1867 75.076 22.9833 75.2227 22.71C75.376 22.43 75.4527 22.08 75.4527 21.66V21.32L74.1627 21.5C73.616 21.5733 73.2027 21.7 72.9227 21.88C72.6427 22.06 72.5027 22.2867 72.5027 22.56C72.5027 22.78 72.566 22.96 72.6927 23.1C72.8193 23.24 72.9793 23.3467 73.1727 23.42C73.3727 23.4867 73.576 23.52 73.7827 23.52ZM77.844 24C77.7907 24 77.744 23.98 77.704 23.94C77.664 23.9 77.644 23.8533 77.644 23.8V19.02C77.644 18.9533 77.664 18.9 77.704 18.86C77.744 18.82 77.7973 18.8 77.864 18.8H78.034C78.1007 18.8 78.154 18.82 78.194 18.86C78.234 18.9 78.254 18.9533 78.254 19.02V23.51L78.074 23.22L81.334 18.95C81.3673 18.91 81.4007 18.8767 81.434 18.85C81.474 18.8167 81.5273 18.8 81.594 18.8H81.784C81.8373 18.8 81.884 18.82 81.924 18.86C81.964 18.8933 81.984 18.9367 81.984 18.99V23.78C81.984 23.8467 81.964 23.9 81.924 23.94C81.884 23.98 81.8307 24 81.764 24H81.594C81.5273 24 81.474 23.98 81.434 23.94C81.394 23.9 81.374 23.8467 81.374 23.78V19.59L81.584 19.54L78.294 23.85C78.2673 23.8833 78.234 23.9167 78.194 23.95C78.154 23.9833 78.1007 24 78.034 24H77.844ZM79.814 18.1C79.4407 18.1 79.1507 18.0433 78.944 17.93C78.744 17.8167 78.604 17.67 78.524 17.49C78.4507 17.31 78.414 17.1267 78.414 16.94C78.414 16.8867 78.4307 16.8433 78.464 16.81C78.4973 16.77 78.544 16.75 78.604 16.75H78.754C78.814 16.75 78.8607 16.77 78.894 16.81C78.9273 16.8433 78.944 16.8867 78.944 16.94C78.944 17.1 79.0007 17.25 79.114 17.39C79.234 17.53 79.4673 17.6 79.814 17.6C80.1673 17.6 80.4007 17.53 80.514 17.39C80.6273 17.25 80.684 17.1 80.684 16.94C80.684 16.8867 80.7007 16.8433 80.734 16.81C80.7673 16.77 80.814 16.75 80.874 16.75H81.024C81.084 16.75 81.1307 16.77 81.164 16.81C81.1973 16.8433 81.214 16.8867 81.214 16.94C81.214 17.1267 81.174 17.31 81.094 17.49C81.0207 17.67 80.8807 17.8167 80.674 17.93C80.474 18.0433 80.1873 18.1 79.814 18.1ZM85.191 24C85.1243 24 85.071 23.98 85.031 23.94C84.991 23.9 84.971 23.8467 84.971 23.78V19.38H83.141C83.0743 19.38 83.021 19.36 82.981 19.32C82.941 19.28 82.921 19.2267 82.921 19.16V19.02C82.921 18.9533 82.941 18.9 82.981 18.86C83.021 18.82 83.0743 18.8 83.141 18.8H87.411C87.4777 18.8 87.531 18.82 87.571 18.86C87.611 18.9 87.631 18.9533 87.631 19.02V19.16C87.631 19.2267 87.611 19.28 87.571 19.32C87.531 19.36 87.4777 19.38 87.411 19.38H85.581V23.78C85.581 23.8467 85.561 23.9 85.521 23.94C85.481 23.98 85.4277 24 85.361 24H85.191ZM93.1498 24.1C92.7232 24.1 92.3432 24.0167 92.0098 23.85C91.6765 23.6833 91.4165 23.4533 91.2298 23.16C91.0432 22.8667 90.9498 22.5333 90.9498 22.16C90.9498 21.8467 91.0165 21.5767 91.1498 21.35C91.2898 21.1167 91.4698 20.9133 91.6898 20.74C91.9098 20.56 92.1432 20.3967 92.3898 20.25C92.0498 19.89 91.8098 19.5833 91.6698 19.33C91.5298 19.07 91.4598 18.7933 91.4598 18.5C91.4598 18.2067 91.5332 17.94 91.6798 17.7C91.8332 17.46 92.0398 17.2667 92.2998 17.12C92.5665 16.9733 92.8665 16.9 93.1998 16.9C93.5398 16.9 93.8398 16.97 94.0998 17.11C94.3598 17.25 94.5632 17.44 94.7098 17.68C94.8632 17.92 94.9398 18.1933 94.9398 18.5C94.9398 18.8067 94.8632 19.0733 94.7098 19.3C94.5632 19.52 94.3698 19.7167 94.1298 19.89C93.8898 20.0567 93.6365 20.2167 93.3698 20.37L95.2798 22.24C95.4132 22.0133 95.5265 21.7633 95.6198 21.49C95.7198 21.2167 95.7898 20.9067 95.8298 20.56C95.8432 20.4133 95.9165 20.34 96.0498 20.34H96.2398C96.3065 20.34 96.3598 20.36 96.3998 20.4C96.4398 20.44 96.4598 20.4933 96.4598 20.56C96.4532 20.7133 96.4365 20.8733 96.4098 21.04C96.3832 21.2067 96.3398 21.3833 96.2798 21.57C96.2265 21.75 96.1565 21.9333 96.0698 22.12C95.9832 22.3067 95.8732 22.4967 95.7398 22.69L96.7198 23.65C96.7798 23.71 96.8098 23.7633 96.8098 23.81C96.8098 23.87 96.7932 23.9167 96.7598 23.95C96.7265 23.9833 96.6765 24 96.6098 24H96.3898C96.3232 24 96.2665 23.99 96.2198 23.97C96.1798 23.95 96.1432 23.9267 96.1098 23.9L95.3698 23.16C95.1165 23.4267 94.8065 23.65 94.4398 23.83C94.0732 24.01 93.6432 24.1 93.1498 24.1ZM93.1498 23.5C93.4498 23.5 93.7532 23.4367 94.0598 23.31C94.3665 23.1767 94.6498 22.9767 94.9098 22.71L92.8098 20.68C92.4765 20.8667 92.1865 21.0733 91.9398 21.3C91.6998 21.5267 91.5798 21.8133 91.5798 22.16C91.5798 22.4467 91.6532 22.69 91.7998 22.89C91.9465 23.09 92.1398 23.2433 92.3798 23.35C92.6198 23.45 92.8765 23.5 93.1498 23.5ZM92.9398 19.93C93.1798 19.7967 93.4032 19.6633 93.6098 19.53C93.8232 19.39 93.9932 19.2367 94.1198 19.07C94.2465 18.9033 94.3098 18.7133 94.3098 18.5C94.3098 18.1933 94.2032 17.95 93.9898 17.77C93.7765 17.59 93.5132 17.5 93.1998 17.5C92.9065 17.5 92.6465 17.59 92.4198 17.77C92.1998 17.9433 92.0898 18.1867 92.0898 18.5C92.0898 18.6333 92.1132 18.7667 92.1598 18.9C92.2065 19.0267 92.2898 19.17 92.4098 19.33C92.5365 19.49 92.7132 19.69 92.9398 19.93ZM100.816 24C100.75 24 100.696 23.98 100.656 23.94C100.616 23.9 100.596 23.8467 100.596 23.78V17.23C100.596 17.1567 100.616 17.1 100.656 17.06C100.696 17.02 100.75 17 100.816 17H104.976C105.05 17 105.106 17.02 105.146 17.06C105.186 17.1 105.206 17.1567 105.206 17.23V17.38C105.206 17.4467 105.186 17.5 105.146 17.54C105.106 17.58 105.05 17.6 104.976 17.6H101.226V19.97H103.456C104.13 19.97 104.646 20.1533 105.006 20.52C105.373 20.88 105.556 21.36 105.556 21.96C105.556 22.18 105.513 22.41 105.426 22.65C105.346 22.89 105.22 23.1133 105.046 23.32C104.88 23.52 104.663 23.6833 104.396 23.81C104.136 23.9367 103.823 24 103.456 24H100.816ZM101.226 23.4H103.356C103.69 23.4 103.973 23.3333 104.206 23.2C104.44 23.0667 104.616 22.89 104.736 22.67C104.863 22.4433 104.926 22.1967 104.926 21.93C104.926 21.5233 104.796 21.1967 104.536 20.95C104.283 20.6967 103.89 20.57 103.356 20.57H101.226V23.4ZM106.455 24C106.388 24 106.331 23.98 106.285 23.94C106.245 23.8933 106.225 23.8367 106.225 23.77V23.61C106.225 23.47 106.291 23.4 106.425 23.4C106.638 23.4 106.821 23.3 106.975 23.1C107.135 22.9 107.258 22.57 107.345 22.11C107.431 21.6433 107.475 21.0233 107.475 20.25V19.02C107.475 18.9533 107.495 18.9 107.535 18.86C107.575 18.82 107.628 18.8 107.695 18.8H110.555C110.621 18.8 110.675 18.82 110.715 18.86C110.755 18.9 110.775 18.9533 110.775 19.02V23.78C110.775 23.8467 110.755 23.9 110.715 23.94C110.675 23.98 110.621 24 110.555 24H110.385C110.318 24 110.265 23.98 110.225 23.94C110.185 23.9 110.165 23.8467 110.165 23.78V19.38H108.085V20.32C108.085 20.9667 108.048 21.5233 107.975 21.99C107.901 22.4567 107.791 22.84 107.645 23.14C107.505 23.4333 107.335 23.65 107.135 23.79C106.935 23.93 106.708 24 106.455 24ZM114.37 24.1C113.89 24.1 113.487 24 113.16 23.8C112.84 23.6 112.593 23.3267 112.42 22.98C112.253 22.6333 112.163 22.2467 112.15 21.82C112.143 21.72 112.14 21.58 112.14 21.4C112.14 21.22 112.143 21.08 112.15 20.98C112.163 20.5467 112.253 20.16 112.42 19.82C112.593 19.4733 112.84 19.2 113.16 19C113.487 18.8 113.89 18.7 114.37 18.7C114.85 18.7 115.25 18.8 115.57 19C115.897 19.2 116.143 19.4733 116.31 19.82C116.483 20.16 116.577 20.5467 116.59 20.98C116.597 21.08 116.6 21.22 116.6 21.4C116.6 21.58 116.597 21.72 116.59 21.82C116.577 22.2467 116.483 22.6333 116.31 22.98C116.143 23.3267 115.897 23.6 115.57 23.8C115.25 24 114.85 24.1 114.37 24.1ZM114.37 23.52C114.837 23.52 115.217 23.37 115.51 23.07C115.803 22.77 115.96 22.3367 115.98 21.77C115.987 21.67 115.99 21.5467 115.99 21.4C115.99 21.2533 115.987 21.13 115.98 21.03C115.96 20.4567 115.803 20.0233 115.51 19.73C115.217 19.43 114.837 19.28 114.37 19.28C113.903 19.28 113.523 19.43 113.23 19.73C112.937 20.0233 112.78 20.4567 112.76 21.03C112.753 21.13 112.75 21.2533 112.75 21.4C112.75 21.5467 112.753 21.67 112.76 21.77C112.78 22.3367 112.937 22.77 113.23 23.07C113.523 23.37 113.903 23.52 114.37 23.52ZM118.186 24C118.12 24 118.066 23.98 118.026 23.94C117.986 23.9 117.966 23.8467 117.966 23.78V19.02C117.966 18.9533 117.986 18.9 118.026 18.86C118.066 18.82 118.12 18.8 118.186 18.8H121.016C121.083 18.8 121.136 18.82 121.176 18.86C121.216 18.9 121.236 18.9533 121.236 19.02V19.16C121.236 19.2267 121.216 19.28 121.176 19.32C121.136 19.36 121.083 19.38 121.016 19.38H118.576V23.78C118.576 23.8467 118.556 23.9 118.516 23.94C118.476 23.98 118.423 24 118.356 24H118.186Z" fill="black"/>
</svg>
