<svg width="101" height="32" viewBox="0 0 101 32" fill="none" xmlns="http://www.w3.org/2000/svg">
<rect width="101" height="32" rx="7" fill="white"/>
<path d="M89.8716 11.8891L86.2016 17.5789L85.8387 11.8891H80.5454C81.0308 10.2196 81.4223 8.87955 81.4223 8.87955L81.6292 8.2111H77.5788L77.3878 8.87955L76.5109 11.8891H72.1963C68.6504 11.8891 66.6546 12.8966 65.8302 14.8021C65.3528 13.0597 63.7724 11.8891 61.3469 11.8891C59.3741 11.8811 57.4677 12.598 55.9931 13.9024C55.2785 12.6732 53.8637 11.8907 51.887 11.8907C49.7785 11.8817 47.7514 12.7001 46.2451 14.1685C45.5862 12.7936 44.1125 11.8891 41.9958 11.8891C41.2952 11.8907 40.5977 11.9817 39.9204 12.16L40.2387 11.0639C40.244 11.0464 40.2509 11.0294 40.2594 11.0132L41.0743 8.20001H37.0398L34.4679 17.0403C34.4011 17.2177 34.3406 17.3967 34.2881 17.5789C34.1741 17.9652 34.0974 18.3614 34.0589 18.7621C33.7231 21.2284 34.8085 23.0896 37.8196 23.2163C38.1085 23.2506 38.3992 23.2676 38.6902 23.267C40.7755 23.2434 42.7727 22.4261 44.2716 20.9829C44.8939 22.3689 46.3406 23.267 48.5782 23.267C50.5262 23.2474 52.4023 22.5324 53.8653 21.2522C54.5496 22.4829 55.9517 23.267 58.0366 23.267H68.1507C71.2859 23.267 73.0573 22.6508 73.9788 21.3124C73.9788 22.5891 74.7109 23.267 76.565 23.267C78.0626 23.267 80.0663 22.9391 82.8196 22.2628L78.8122 27.9525H82.8467L93.9077 11.8891H89.8716ZM42.3586 17.5789C41.9814 18.8746 40.7671 19.92 39.653 19.92C38.539 19.92 37.9406 18.8746 38.3178 17.5789C38.695 16.2832 39.9093 15.2361 41.0154 15.2361C42.1215 15.2361 42.7358 16.2784 42.3586 17.5789ZM52.2499 17.5789C51.8727 18.8746 50.6584 19.92 49.5443 19.92C48.4302 19.92 47.8462 18.8746 48.2154 17.5789C48.5846 16.2832 49.8069 15.2361 50.921 15.2361C52.035 15.2361 52.6207 16.2784 52.2499 17.5789ZM57.6737 17.5789C58.0509 16.2816 59.2653 15.2361 60.3714 15.2361C61.4775 15.2361 62.0854 16.2816 61.7082 17.5789C61.331 18.8762 60.1565 19.8899 59.0552 19.9216H58.9645C57.8806 19.8899 57.3013 18.8572 57.6737 17.5789ZM70.6764 19.5145C70.4727 19.9897 68.8796 19.9184 68.4801 19.9248L64.557 19.9216C65.0862 19.2162 65.4855 18.423 65.7363 17.5789C65.7618 17.4933 65.7841 17.4094 65.8048 17.3254C66.2265 17.9258 67.121 18.4675 68.8605 18.8112C70.5188 19.1296 70.8212 19.033 70.6764 19.5145ZM74.6663 18.2347C74.3225 16.8978 72.8329 16.3735 70.7448 16.12C69.8711 16.0155 69.3793 15.9743 69.4891 15.5973C69.5735 15.3043 70.0111 15.2425 70.9517 15.2425H75.5385L74.6663 18.2347ZM78.6976 18.2473C78.6976 18.2204 79.0907 16.8883 79.5714 15.2377H82.1305L82.5491 19.5019C78.3332 20.3968 78.2281 20.156 78.6976 18.2473Z" fill="#242B2C"/>
<path d="M7.6231 18.3352L11.6891 4H17.9295L16.6673 8.44444C16.6539 8.46997 16.6431 8.49676 16.6349 8.52444L13.3215 20.2603H16.4143C15.1225 23.5509 14.1115 26.1308 13.3813 28C7.67669 27.9352 6.0767 23.7689 7.47731 18.8394L7.6231 18.3352ZM13.4037 28L20.9252 16.96H17.7339L20.5102 9.88825C25.2753 10.3962 27.5095 14.2171 26.1961 18.8381C24.7856 23.8095 19.0772 28 13.5196 28H13.4037Z" fill="url(#paint0_linear_102_97)"/>
<defs>
<linearGradient id="paint0_linear_102_97" x1="19.0413" y1="7.12" x2="11.2113" y2="34.3316" gradientUnits="userSpaceOnUse">
<stop stop-color="#EF7829"/>
<stop offset="0.28" stop-color="#F0692A"/>
<stop offset="0.63" stop-color="#F15E2C"/>
<stop offset="1" stop-color="#F15A2C"/>
</linearGradient>
</defs>
</svg>
