<svg width="32" height="32" viewBox="0 0 32 32" fill="none" xmlns="http://www.w3.org/2000/svg">
<rect width="32" height="32" rx="7" fill="white"/>
<path d="M25.543 10.8568C25.5576 11.0685 25.5576 11.2802 25.5576 11.4938C25.5576 18.0027 20.6045 25.5095 11.5476 25.5095V25.5056C8.87215 25.5095 6.25229 24.7428 4 23.2973C4.38903 23.3441 4.78001 23.3675 5.17197 23.3685C7.38915 23.3704 9.54296 22.6262 11.2873 21.2557C9.18026 21.2157 7.3326 19.8414 6.68714 17.8349C7.42523 17.9774 8.18574 17.9481 8.91018 17.7501C6.61304 17.2858 4.96039 15.2667 4.96039 12.9218V12.8594C5.64485 13.2408 6.41121 13.4524 7.19512 13.4758C5.03157 12.0293 4.36466 9.14987 5.67118 6.89861C8.17112 9.97604 11.8596 11.8469 15.8191 12.0449C15.4223 10.334 15.9644 8.54121 17.2436 7.33852C19.2268 5.47353 22.3459 5.56912 24.2101 7.55214C25.3129 7.33462 26.3698 6.92983 27.337 6.35628C26.9694 7.49654 26.2001 8.46513 25.1725 9.08061C26.1484 8.96551 27.102 8.7041 28 8.30516C27.3389 9.29618 26.5063 10.1594 25.543 10.8568Z" fill="#1D9BF0"/>
</svg>
