<svg width="149" height="32" viewBox="0 0 149 32" fill="none" xmlns="http://www.w3.org/2000/svg">
<rect width="149" height="32" rx="7" fill="white"/>
<path fill-rule="evenodd" clip-rule="evenodd" d="M73 16.5C73 19.84 70.57 22 67.12 22C63.67 22 61.24 19.84 61.24 16.5C61.24 13.16 63.67 11 67.12 11C70.57 11 73 13.16 73 16.5ZM63.78 16.5C63.78 18.57 65.13 20 67.12 20C69.11 20 70.46 18.57 70.46 16.5C70.46 14.43 69.11 13.05 67.12 13.05C65.13 13.05 63.78 14.43 63.78 16.5ZM46.75 16.29C47.7 15.85 48.31 15.11 48.31 13.96C48.31 12.23 46.73 11 44.44 11H39.17V22H44.67C47.04 22 48.69 20.71 48.69 18.95C48.69 17.62 47.82 16.63 46.75 16.29ZM41.6 13.01H44.43C45.28 13.01 45.87 13.51 45.87 14.21C45.87 14.91 45.27 15.41 44.43 15.41H41.6V13V13.01ZM44.67 20H41.61V17.3H44.67C45.63 17.3 46.26 17.85 46.26 18.66C46.26 19.46 45.63 19.99 44.67 19.99V20ZM57.84 22H61.03L55.97 16.29L60.61 11H57.71L54.03 15.27H53.43V11H51V22H53.44V17.62H54.03L57.83 22H57.84ZM82.47 11V15.34H77.54V11H75.1V22H77.53V17.56H82.46V22H84.89V11H82.46H82.47ZM92.9 22H90.46V13.22H86.66V11H96.7V13.22H92.9V22ZM102.6 11C100.46 11 98.58 11.89 98.03 13.8L100.27 14.17C100.482 13.7759 100.801 13.4495 101.19 13.2284C101.579 13.0073 102.023 12.9004 102.47 12.92C103.8 12.92 104.59 13.82 104.69 15.25H102.32C99.09 15.25 97.48 16.67 97.48 18.7C97.48 20.75 99.07 22 101.31 22C103.11 22 104.31 21.18 104.84 20.27L105.34 22H107.14V15.82C107.14 12.63 105.41 11 102.6 11V11ZM101.88 20.16C100.69 20.16 99.93 19.55 99.93 18.59C99.93 17.75 100.55 17.16 102.41 17.16H104.71C104.71 18.96 103.57 20.16 101.88 20.16ZM119.73 22H116.53L112.73 17.62H112.13V22H109.71V11H112.14V15.27H112.73L116.4 11H119.3L114.67 16.29L119.72 22H119.73ZM124 22H126.44V13.22H130.24V11H120.2V13.22H124V22ZM136.3 11C139.63 11 142 13.2 142 16.37C142 16.67 141.98 16.92 141.96 17.16H133.12C133.35 18.85 134.58 19.99 136.44 19.99C137.73 19.99 138.74 19.44 139.27 18.66L141.56 19.04C140.73 21.14 138.58 22 136.29 22C132.95 22 130.58 19.82 130.58 16.5C130.58 13.18 132.95 11 136.29 11H136.3ZM139.36 15.25C139.178 14.5834 138.775 13.9981 138.217 13.5896C137.66 13.181 136.981 12.9732 136.29 13C135.605 12.9738 134.932 13.1827 134.383 13.5921C133.834 14.0014 133.441 14.5865 133.27 15.25H139.36V15.25Z" fill="black"/>
<path d="M17.5 28H18.5C23.94 28 26.65 28 28.33 26.32C30 24.64 30 21.92 30 16.5V15.48C30 10.08 30 7.36 28.33 5.68C26.65 4 23.93 4 18.5 4H17.5C12.06 4 9.35 4 7.67 5.68C6 7.36 6 10.08 6 15.5V16.52C6 21.92 6 24.64 7.68 26.32C9.36 28 12.08 28 17.5 28Z" fill="#0077FF"/>
<path d="M18.77 21.29C13.3 21.29 10.18 17.54 10.05 11.3H12.79C12.88 15.88 14.9 17.82 16.5 18.22V11.3H19.08V15.25C20.66 15.08 22.32 13.28 22.88 11.3H25.46C25.249 12.3269 24.8283 13.2992 24.2244 14.1561C23.6204 15.013 22.8461 15.736 21.95 16.28C22.9503 16.7771 23.8339 17.4806 24.5423 18.3442C25.2508 19.2078 25.768 20.2118 26.06 21.29H23.22C22.9579 20.3535 22.4253 19.5152 21.6888 18.8801C20.9523 18.2451 20.0448 17.8415 19.08 17.72V21.29H18.77V21.29Z" fill="white"/>
</svg>
